<mxfile>
	<diagram name="Page-1">
		<mxGraphModel>
			<root>
				<mxCell id="0" />
				<mxCell id="1" parent="0" />
		<mxCell id="2" value="graph-generator@1.0.0" style="rounded=1;whiteSpace=wrap;html=1;" parent="1" vertex="1">
			<mxGeometry x="0" y="0" width="120" height="60" as="geometry" />
		</mxCell>
		<mxCell id="3" value="go@1.24.1" style="rounded=1;whiteSpace=wrap;html=1;" parent="1" vertex="1">
			<mxGeometry x="-180" y="100" width="120" height="60" as="geometry" />
		</mxCell>
		<mxCell id="4" source="2" target="3" parent="1" edge="1">
			<mxGeometry relative="1" as="geometry" />
		</mxCell>
		<mxCell id="5" value="toolchain@go1.24.1" style="rounded=1;whiteSpace=wrap;html=1;" parent="1" vertex="1">
			<mxGeometry x="-360" y="200" width="120" height="60" as="geometry" />
		</mxCell>
		<mxCell id="6" source="3" target="5" parent="1" edge="1">
			<mxGeometry relative="1" as="geometry" />
		</mxCell>
			</root>
		</mxGraphModel>
	</diagram>
</mxfile>